<!-- Copyright 2000-2024 JetBrains s.r.o. and contributors. Use of this source code is governed by the Apache 2.0 license. -->
<svg width="16" height="16" viewBox="0 0 16 16" fill="none" xmlns="http://www.w3.org/2000/svg">
<path d="M12.245 9H13.34L16 16H14.95L14.31 14.22H11.345L10.75 16H9.67505L12.245 9ZM14.01 13.385L12.9 10.33L12.785 9.9L12.675 10.33L11.625 13.385H14.01Z" fill="#548AF7"/>
<path d="M10.5 2C10.2239 2 10 2.22386 10 2.5V3.08902C9.99986 3.09587 9.99986 3.10271 10 3.10954V5.5C10 5.77614 10.2239 6 10.5 6C10.7761 6 11 5.77614 11 5.5V3.99951C12.215 4.91216 13 6.36471 13 7.99998L14 8C14 5.91235 12.9337 4.0744 11.3177 3H13.5C13.7761 3 14 2.77614 14 2.5C14 2.22386 13.7761 2 13.5 2H10.5Z" fill="#CED0D6"/>
<path d="M6 10.5C6 10.2239 5.77614 10 5.5 10C5.22386 10 5 10.2239 5 10.5V12.0004C3.78495 11.0878 3 9.63525 3 7.99998C3 5.54954 4.76326 3.50989 7.09033 3.08244C7.36193 3.03255 7.54166 2.77193 7.49177 2.50033C7.44188 2.22873 7.18127 2.049 6.90967 2.09889C4.1165 2.61195 2 5.05827 2 7.99998C2 10.0877 3.06633 11.9256 4.68238 13H2.5C2.22386 13 2 13.2239 2 13.5C2 13.7761 2.22386 14 2.5 14H5.5C5.77614 14 6 13.7761 6 13.5V12.911C6.00014 12.9041 6.00014 12.8972 6 12.8904V10.5Z" fill="#CED0D6"/>
</svg>
